name analog
datacolumns 19
datarows 50
range 0.7095 0.734
endheader
time	ground_force_vx	ground_force_vy	ground_force_vz	ground_force_px	ground_force_py	ground_force_pz	l_ground_force_vx	l_ground_force_vy	l_ground_force_vz	l_ground_force_px	l_ground_force_py	l_ground_force_pz	ground_torque_x	ground_torque_y	ground_torque_z	l_ground_torque_x	l_ground_torque_y	l_ground_torque_z
0.7095	-0.0	-0.0	-0.0	-2.0427067279815674	1.621888279914856	-763.96435546875	-0.0	-0.0	-0.0	-0.0	-0.0	-0.0	-0.0	-0.0	-0.0	-0.0	-0.0	-0.0
0.71	-0.0	-0.0	-0.0	-2.2660207748413086	1.8002866506576538	-766.3304443359375	-0.0	-0.0	-0.0	-0.0	-0.0	-0.0	-0.0	-0.0	-0.0	-0.0	-0.0	-0.0
0.7105	-0.0	-0.0	-0.0	-2.4265241622924805	1.9519543647766116	-765.164306640625	-0.0	-0.0	-0.0	-0.0	-0.0	-0.0	-0.0	-0.0	-0.0	-0.0	-0.0	-0.0
0.711	-0.0	-0.0	-0.0	-2.051841735839844	2.2638401985168457	-766.8248901367188	-0.0	-0.0	-0.0	-0.0	-0.0	-0.0	-0.0	-0.0	-0.0	-0.0	-0.0	-0.0
0.7115	-0.0	-0.0	-0.0	-1.8465871810913088	2.763745784759521	-768.0601806640625	-0.0	-0.0	-0.0	-0.0	-0.0	-0.0	-0.0	-0.0	-0.0	-0.0	-0.0	-0.0
0.712	-0.0	-0.0	-0.0	-1.971231698989868	3.743476867675781	-767.6727294921875	-0.0	-0.0	-0.0	-0.0	-0.0	-0.0	-0.0	-0.0	-0.0	-0.0	-0.0	-0.0
0.7125	-0.0	-0.0	-0.0	-2.462496757507324	4.715427875518799	-768.1663818359375	-0.0	-0.0	-0.0	-0.0	-0.0	-0.0	-0.0	-0.0	-0.0	-0.0	-0.0	-0.0
0.713	-0.0	-0.0	-0.0	-2.962499618530273	5.177943706512451	-769.3325805664062	-0.0	-0.0	-0.0	-0.0	-0.0	-0.0	-0.0	-0.0	-0.0	-0.0	-0.0	-0.0
0.7135	-0.0	-0.0	-0.0	-3.398277997970581	5.401730060577393	-768.7246704101562	-0.0	-0.0	-0.0	-0.0	-0.0	-0.0	-0.0	-0.0	-0.0	-0.0	-0.0	-0.0
0.714	-0.0	-0.0	-0.0	-3.933431625366211	5.9635748863220215	-769.8253173828125	-0.0	-0.0	-0.0	-0.0	-0.0	-0.0	-0.0	-0.0	-0.0	-0.0	-0.0	-0.0
0.7145	-0.0	-0.0	-0.0	-4.16584587097168	5.615215301513672	-770.6066284179688	-0.0	-0.0	-0.0	-0.0	-0.0	-0.0	-0.0	-0.0	-0.0	-0.0	-0.0	-0.0
0.715	-0.0	-0.0	-0.0	-4.247061729431152	5.002458572387695	-774.3406982421875	-0.0	-0.0	-0.0	-0.0	-0.0	-0.0	-0.0	-0.0	-0.0	-0.0	-0.0	-0.0
0.7155	-0.0	-0.0	-0.0	-3.925262451171875	4.696815490722656	-774.5546875	-0.0	-0.0	-0.0	-0.0	-0.0	-0.0	-0.0	-0.0	-0.0	-0.0	-0.0	-0.0
0.716	-0.0	-0.0	-0.0	-2.874152898788452	4.12319803237915	-775.22998046875	-0.0	-0.0	-0.0	-0.0	-0.0	-0.0	-0.0	-0.0	-0.0	-0.0	-0.0	-0.0
0.7165	-0.0	-0.0	-0.0	-2.086669921875	3.7859036922454834	-776.3197631835938	-0.0	-0.0	-0.0	-0.0	-0.0	-0.0	-0.0	-0.0	-0.0	-0.0	-0.0	-0.0
0.717	-0.0	-0.0	-0.0	-1.7222273349761963	2.817448854446411	-776.564697265625	-0.0	-0.0	-0.0	-0.0	-0.0	-0.0	-0.0	-0.0	-0.0	-0.0	-0.0	-0.0
0.7175	-0.0	-0.0	-0.0	-1.3034753799438477	1.9608688354492188	-779.0855102539062	-0.0	-0.0	-0.0	-0.0	-0.0	-0.0	-0.0	-0.0	-0.0	-0.0	-0.0	-0.0
0.718	-0.0	-0.0	-0.0	-0.8102096319198608	1.391503930091858	-780.390625	-0.0	-0.0	-0.0	-0.0	-0.0	-0.0	-0.0	-0.0	-0.0	-0.0	-0.0	-0.0
0.7185	-0.0	-0.0	-0.0	-0.3640477657318115	1.4605960845947266	-779.6048583984375	-0.0	-0.0	-0.0	-0.0	-0.0	-0.0	-0.0	-0.0	-0.0	-0.0	-0.0	-0.0
0.719	-0.0	-0.0	-0.0	-0.1784210205078125	1.0482947826385498	-778.785888671875	-0.0	-0.0	-0.0	-0.0	-0.0	-0.0	-0.0	-0.0	-0.0	-0.0	-0.0	-0.0
0.7195	-0.0	-0.0	-0.0	0.0962036550045013	0.5895447731018066	-779.8212890625	-0.0	-0.0	-0.0	-0.0	-0.0	-0.0	-0.0	-0.0	-0.0	-0.0	-0.0	-0.0
0.72	-0.0	-0.0	-0.0	-0.3911680579185486	1.138155221939087	-780.5821533203125	-0.0	-0.0	-0.0	-0.0	-0.0	-0.0	-0.0	-0.0	-0.0	-0.0	-0.0	-0.0
0.7205	-0.0	-0.0	-0.0	-0.6790500283241272	1.741236686706543	-781.1788940429688	-0.0	-0.0	-0.0	-0.0	-0.0	-0.0	-0.0	-0.0	-0.0	-0.0	-0.0	-0.0
0.721	-0.0	-0.0	-0.0	-1.4131975173950195	1.761784911155701	-780.2569580078125	-0.0	-0.0	-0.0	-0.0	-0.0	-0.0	-0.0	-0.0	-0.0	-0.0	-0.0	-0.0
0.7215	-0.0	-0.0	-0.0	-2.1135027408599854	1.3841488361358645	-780.0394287109375	-0.0	-0.0	-0.0	-0.0	-0.0	-0.0	-0.0	-0.0	-0.0	-0.0	-0.0	-0.0
0.722	-0.0	-0.0	-0.0	-2.394002914428711	1.536331295967102	-781.5616455078125	-0.0	-0.0	-0.0	-0.0	-0.0	-0.0	-0.0	-0.0	-0.0	-0.0	-0.0	-0.0
0.7225	-0.0	-0.0	-0.0	-2.931248664855957	1.6531952619552612	-779.6868286132812	-0.0	-0.0	-0.0	-0.0	-0.0	-0.0	-0.0	-0.0	-0.0	-0.0	-0.0	-0.0
0.723	-0.0	-0.0	-0.0	-3.3070311546325684	2.1453664302825928	-778.4827270507812	-0.0	-0.0	-0.0	-0.0	-0.0	-0.0	-0.0	-0.0	-0.0	-0.0	-0.0	-0.0
0.7235	-0.0	-0.0	-0.0	-4.260544776916504	2.5233187675476074	-778.8713989257812	-0.0	-0.0	-0.0	-0.0	-0.0	-0.0	-0.0	-0.0	-0.0	-0.0	-0.0	-0.0
0.724	-0.0	-0.0	-0.0	-4.851119995117188	2.2379093170166016	-780.9285278320312	-0.0	-0.0	-0.0	-0.0	-0.0	-0.0	-0.0	-0.0	-0.0	-0.0	-0.0	-0.0
0.7245	-0.0	-0.0	-0.0	-5.6539459228515625	2.228260040283203	-779.66455078125	-0.0	-0.0	-0.0	-0.0	-0.0	-0.0	-0.0	-0.0	-0.0	-0.0	-0.0	-0.0
0.725	-0.0	-0.0	-0.0	-5.140598773956299	2.6681060791015625	-781.3670654296875	-0.0	-0.0	-0.0	-0.0	-0.0	-0.0	-0.0	-0.0	-0.0	-0.0	-0.0	-0.0
0.7255	-0.0	-0.0	-0.0	-5.743010520935059	2.350898265838623	-782.3161010742188	-0.0	-0.0	-0.0	-0.0	-0.0	-0.0	-0.0	-0.0	-0.0	-0.0	-0.0	-0.0
0.726	-0.0	-0.0	-0.0	-5.436242580413818	2.584781646728516	-780.9029541015625	-0.0	-0.0	-0.0	-0.0	-0.0	-0.0	-0.0	-0.0	-0.0	-0.0	-0.0	-0.0
0.7265	-0.0	-0.0	-0.0	-5.151791572570801	2.4901669025421143	-783.463623046875	-0.0	-0.0	-0.0	-0.0	-0.0	-0.0	-0.0	-0.0	-0.0	-0.0	-0.0	-0.0
0.727	-0.0	-0.0	-0.0	-5.184969425201416	2.735124111175537	-782.0723266601562	-0.0	-0.0	-0.0	-0.0	-0.0	-0.0	-0.0	-0.0	-0.0	-0.0	-0.0	-0.0
0.7275	-0.0	-0.0	-0.0	-4.037174224853516	3.1195640563964844	-780.8390502929688	-0.0	-0.0	-0.0	-0.0	-0.0	-0.0	-0.0	-0.0	-0.0	-0.0	-0.0	-0.0
0.728	-0.0	-0.0	-0.0	-4.231243133544922	3.325814008712769	-783.0408325195312	-0.0	-0.0	-0.0	-0.0	-0.0	-0.0	-0.0	-0.0	-0.0	-0.0	-0.0	-0.0
0.7285	-0.0	-0.0	-0.0	-3.507260799407959	3.086484909057617	-781.3450317382812	-0.0	-0.0	-0.0	-0.0	-0.0	-0.0	-0.0	-0.0	-0.0	-0.0	-0.0	-0.0
0.729	-0.0	-0.0	-0.0	-3.6245908737182617	3.152574300765991	-780.7500610351562	-0.0	-0.0	-0.0	-0.0	-0.0	-0.0	-0.0	-0.0	-0.0	-0.0	-0.0	-0.0
0.7295	-0.0	-0.0	-0.0	-3.9485387802124015	2.9083657264709477	-778.650390625	-0.0	-0.0	-0.0	-0.0	-0.0	-0.0	-0.0	-0.0	-0.0	-0.0	-0.0	-0.0
0.73	-0.0	-0.0	-0.0	-3.638944625854492	2.885037422180176	-778.7805786132812	-0.0	-0.0	-0.0	-0.0	-0.0	-0.0	-0.0	-0.0	-0.0	-0.0	-0.0	-0.0
0.7305	-0.0	-0.0	-0.0	-3.788931131362915	2.7395031452178955	-777.4240112304688	-0.0	-0.0	-0.0	-0.0	-0.0	-0.0	-0.0	-0.0	-0.0	-0.0	-0.0	-0.0
0.731	-0.0	-0.0	-0.0	-4.643472194671631	2.7257964611053467	-779.2625122070312	-0.0	-0.0	-0.0	-0.0	-0.0	-0.0	-0.0	-0.0	-0.0	-0.0	-0.0	-0.0
0.7315	-0.0	-0.0	-0.0	-5.183042049407959	2.7586302757263184	-779.2617797851562	-0.0	-0.0	-0.0	-0.0	-0.0	-0.0	-0.0	-0.0	-0.0	-0.0	-0.0	-0.0
0.732	-0.0	-0.0	-0.0	-5.0936126708984375	3.0218276977539062	-780.1915893554688	-0.0	-0.0	-0.0	-0.0	-0.0	-0.0	-0.0	-0.0	-0.0	-0.0	-0.0	-0.0
0.7325	-0.0	-0.0	-0.0	-5.770347595214844	2.884682893753052	-780.656494140625	-0.0	-0.0	-0.0	-0.0	-0.0	-0.0	-0.0	-0.0	-0.0	-0.0	-0.0	-0.0
0.733	-0.0	-0.0	-0.0	-5.324258327484131	2.880519390106201	-780.1907348632812	-0.0	-0.0	-0.0	-0.0	-0.0	-0.0	-0.0	-0.0	-0.0	-0.0	-0.0	-0.0
0.7335	-0.0	-0.0	-0.0	-5.466264724731445	3.0020506381988525	-779.0025024414062	-0.0	-0.0	-0.0	-0.0	-0.0	-0.0	-0.0	-0.0	-0.0	-0.0	-0.0	-0.0
0.734	-0.0	-0.0	-0.0	-4.570415496826172	2.7953381538391118	-780.2255859375	-0.0	-0.0	-0.0	-0.0	-0.0	-0.0	-0.0	-0.0	-0.0	-0.0	-0.0	-0.0
